<svg width="153" height="40" viewBox="0 0 153 40" fill="none" xmlns="http://www.w3.org/2000/svg">
<path d="M64.7557 15.7784C64.6989 15.1534 64.446 14.6676 63.9972 14.321C63.554 13.9688 62.9205 13.7926 62.0966 13.7926C61.5511 13.7926 61.0966 13.8636 60.733 14.0057C60.3693 14.1477 60.0966 14.3438 59.9148 14.5938C59.733 14.8381 59.6392 15.1193 59.6335 15.4375C59.6222 15.6989 59.6733 15.929 59.7869 16.1278C59.9063 16.3267 60.0767 16.5028 60.2983 16.6562C60.5256 16.804 60.7983 16.9347 61.1165 17.0483C61.4347 17.1619 61.7926 17.2614 62.1903 17.3466L63.6903 17.6875C64.554 17.875 65.3153 18.125 65.9744 18.4375C66.6392 18.75 67.196 19.1222 67.6449 19.554C68.0994 19.9858 68.4432 20.483 68.6761 21.0455C68.9091 21.608 69.0284 22.2386 69.0341 22.9375C69.0284 24.0398 68.75 24.9858 68.1989 25.7756C67.6477 26.5653 66.8551 27.1705 65.821 27.5909C64.7926 28.0114 63.5511 28.2216 62.0966 28.2216C60.6364 28.2216 59.3636 28.0028 58.2784 27.5653C57.1932 27.1278 56.3494 26.4631 55.7472 25.571C55.1449 24.679 54.8352 23.5511 54.8182 22.1875H58.858C58.892 22.75 59.0426 23.2188 59.3097 23.5938C59.5767 23.9688 59.9432 24.2528 60.4091 24.446C60.8807 24.6392 61.4261 24.7358 62.0455 24.7358C62.6136 24.7358 63.0966 24.6591 63.4943 24.5057C63.8977 24.3523 64.2074 24.1392 64.4233 23.8665C64.6392 23.5937 64.75 23.2812 64.7557 22.929C64.75 22.5994 64.6477 22.3182 64.4489 22.0852C64.25 21.8466 63.9432 21.642 63.5284 21.4716C63.1193 21.2955 62.5966 21.1335 61.9602 20.9858L60.1364 20.5597C58.625 20.2131 57.4347 19.6534 56.5653 18.8807C55.696 18.1023 55.2642 17.0511 55.2699 15.7273C55.2642 14.6477 55.554 13.7017 56.1392 12.8892C56.7244 12.0767 57.5341 11.4432 58.5682 10.9886C59.6023 10.5341 60.7813 10.3068 62.1051 10.3068C63.4574 10.3068 64.6307 10.5369 65.625 10.9972C66.625 11.4517 67.4006 12.0909 67.9517 12.9148C68.5028 13.7386 68.7841 14.6932 68.7955 15.7784H64.7557ZM77.2756 28.2472C75.9006 28.2472 74.7188 27.9659 73.7301 27.4034C72.7472 26.8352 71.9886 26.0455 71.4545 25.0341C70.9261 24.017 70.6619 22.8381 70.6619 21.4972C70.6619 20.1506 70.9261 18.9716 71.4545 17.9602C71.9886 16.9432 72.7472 16.1534 73.7301 15.5909C74.7188 15.0227 75.9006 14.7386 77.2756 14.7386C78.6506 14.7386 79.8295 15.0227 80.8125 15.5909C81.8011 16.1534 82.5597 16.9432 83.0881 17.9602C83.6222 18.9716 83.8892 20.1506 83.8892 21.4972C83.8892 22.8381 83.6222 24.017 83.0881 25.0341C82.5597 26.0455 81.8011 26.8352 80.8125 27.4034C79.8295 27.9659 78.6506 28.2472 77.2756 28.2472ZM77.3011 25.1023C77.8011 25.1023 78.2244 24.9489 78.571 24.642C78.9176 24.3352 79.1818 23.9091 79.3636 23.3636C79.5511 22.8182 79.6449 22.1875 79.6449 21.4716C79.6449 20.7443 79.5511 20.108 79.3636 19.5625C79.1818 19.017 78.9176 18.5909 78.571 18.2841C78.2244 17.9773 77.8011 17.8239 77.3011 17.8239C76.7841 17.8239 76.3466 17.9773 75.9886 18.2841C75.6364 18.5909 75.3665 19.017 75.179 19.5625C74.9972 20.108 74.9062 20.7443 74.9062 21.4716C74.9062 22.1875 74.9972 22.8182 75.179 23.3636C75.3665 23.9091 75.6364 24.3352 75.9886 24.642C76.3466 24.9489 76.7841 25.1023 77.3011 25.1023ZM94.4702 22.3494V14.9091H98.6293V28H94.6577V25.5625H94.5213C94.2315 26.3636 93.7372 27 93.0384 27.4716C92.3452 27.9375 91.5071 28.1705 90.5241 28.1705C89.6321 28.1705 88.848 27.9659 88.1719 27.5568C87.4957 27.1477 86.9702 26.5767 86.5952 25.8438C86.2202 25.1051 86.0298 24.2415 86.0241 23.2528V14.9091H90.1918V22.4347C90.1974 23.1449 90.3849 23.7045 90.7543 24.1136C91.1236 24.5227 91.6264 24.7273 92.2628 24.7273C92.6776 24.7273 93.0497 24.6364 93.3793 24.4545C93.7145 24.267 93.9787 23.9972 94.1719 23.6449C94.3707 23.2869 94.4702 22.8551 94.4702 22.3494ZM105.45 10.5455V28H101.282V10.5455H105.45ZM112.287 28L107.207 10.5455H111.869L114.503 21.983H114.648L117.656 10.5455H121.457L124.466 22.0085H124.611L127.253 10.5455H131.906L126.835 28H122.77L119.625 17.4148H119.489L116.344 28H112.287ZM133.649 28V14.9091H137.817V28H133.649ZM135.737 13.3835C135.152 13.3835 134.649 13.1903 134.229 12.804C133.808 12.4119 133.598 11.9403 133.598 11.3892C133.598 10.8437 133.808 10.3778 134.229 9.99148C134.649 9.59943 135.152 9.40341 135.737 9.40341C136.328 9.40341 136.831 9.59943 137.246 9.99148C137.666 10.3778 137.876 10.8437 137.876 11.3892C137.876 11.9403 137.666 12.4119 137.246 12.804C136.831 13.1903 136.328 13.3835 135.737 13.3835ZM144.637 10.5455V28H140.469V10.5455H144.637ZM151.457 10.5455V28H147.29V10.5455H151.457Z" fill="white"/>
<path d="M35.213 11.501L35.206 6.288L25.586 0V4.022L31.931 8.2L31.936 11.402L28.988 13.398L26.977 11.931V9.446L23.7 7.204V11.727L18.505 14.915L18.495 23.335L14.822 25.403L12.937 23.926V21.488L15.169 19.959V19.939V16.166L11.152 18.854L8.081 16.856L5.276 18.693L9.659 21.694V23.536L6.5 25.674L3.277 23.492V16.23L8.062 12.991L8.066 9.875L14.203 13.827L19.361 10.394L16.216 8.559L14.159 9.947L9.677 6.983L14.731 4.036L19.11 6.603V2.775L14.736 0.211L4.794 6.008L4.787 11.223L0 14.465V25.257L4.787 28.499L4.794 33.714L14.414 40V35.981L8.069 31.803L8.064 28.601L11.012 26.605L13.023 28.072V30.557L16.3 32.798V28.275L21.569 25.088L21.628 16.667L25.178 14.599L27.063 16.076V18.514L24.831 20.043V20.063V23.837L28.848 21.148L31.919 23.146L34.724 21.309L30.34 18.306V16.466L33.5 14.329L36.723 16.511V23.772L31.939 27.012L31.934 30.127L25.797 26.173L20.639 29.584L23.784 31.416L25.841 30.055L30.323 33.019L25.269 35.966L20.89 33.399V37.225L25.264 39.789L35.206 33.995L35.213 28.779L40 25.537V14.743L35.213 11.501Z" fill="#AC6AFF"/>
</svg>
