<svg width="134" height="28" viewBox="0 0 134 28" fill="none" xmlns="http://www.w3.org/2000/svg">
<mask id="mask0_171_75" style="mask-type:luminance" maskUnits="userSpaceOnUse" x="0" y="0" width="29" height="28">
<path d="M28.5996 0H0.599609V28H28.5996V0Z" fill="white"/>
</mask>
<g mask="url(#mask0_171_75)">
<path d="M14.5995 26.3199C21.4037 26.3199 26.9195 20.8041 26.9195 13.9999C26.9195 7.19578 21.4037 1.67993 14.5995 1.67993C7.79539 1.67993 2.27954 7.19578 2.27954 13.9999C2.27954 20.8041 7.79539 26.3199 14.5995 26.3199Z" stroke="white" stroke-width="3.36"/>
<mask id="mask1_171_75" style="mask-type:alpha" maskUnits="userSpaceOnUse" x="0" y="0" width="29" height="28">
<path d="M14.5996 28C22.3316 28 28.5996 21.732 28.5996 14C28.5996 6.26801 22.3316 0 14.5996 0C6.86762 0 0.599609 6.26801 0.599609 14C0.599609 21.732 6.86762 28 14.5996 28Z" fill="black"/>
</mask>
<g mask="url(#mask1_171_75)">
<path d="M9.86383 18.702C15.6446 18.702 20.3309 14.0157 20.3309 8.23492C20.3309 2.4541 15.6446 -2.23218 9.86383 -2.23218C4.08301 -2.23218 -0.603271 2.4541 -0.603271 8.23492C-0.603271 14.0157 4.08301 18.702 9.86383 18.702Z" stroke="white" stroke-width="3.36"/>
</g>
</g>
<path d="M38.274 22.3126V8.00464H41.4296V22.3126H38.274ZM37 10.3174V8.00464H41.4296V10.3174H37ZM49.5524 22.685C48.6116 22.685 47.7754 22.5413 47.0436 22.2538C46.3119 21.9533 45.6912 21.5482 45.1816 21.0386C44.6851 20.529 44.3062 19.9475 44.0448 19.2942C43.7835 18.6278 43.6528 17.9287 43.6528 17.197V16.7462C43.6528 16.0014 43.7835 15.2958 44.0448 14.6294C44.3192 13.9499 44.7112 13.3554 45.2208 12.8458C45.7435 12.3362 46.3707 11.9377 47.1024 11.6502C47.8342 11.3497 48.6508 11.1994 49.5524 11.1994C50.48 11.1994 51.303 11.3497 52.022 11.6502C52.754 11.9377 53.374 12.3362 53.884 12.8458C54.394 13.3554 54.786 13.9499 55.06 14.6294C55.334 15.2958 55.472 16.0014 55.472 16.7462V17.197C55.472 17.9287 55.341 18.6278 55.08 19.2942C54.818 19.9475 54.433 20.529 53.923 21.0386C53.427 21.5482 52.813 21.9533 52.081 22.2538C51.349 22.5413 50.506 22.685 49.5524 22.685ZM49.5524 20.039C50.167 20.039 50.676 19.9083 51.081 19.647C51.486 19.3857 51.793 19.0198 52.002 18.5494C52.225 18.079 52.336 17.5563 52.336 16.9814C52.336 16.3673 52.225 15.8315 52.002 15.3742C51.78 14.9038 51.46 14.5314 51.042 14.257C50.637 13.9826 50.14 13.8454 49.5524 13.8454C48.9775 13.8454 48.481 13.9826 48.0628 14.257C47.6447 14.5314 47.3246 14.9038 47.1024 15.3742C46.8934 15.8315 46.7888 16.3673 46.7888 16.9814C46.7888 17.5563 46.8934 18.079 47.1024 18.5494C47.3115 19.0198 47.6251 19.3857 48.0432 19.647C48.4614 19.9083 48.9644 20.039 49.5524 20.039ZM61.894 26.5854C61.371 26.5854 60.835 26.5658 60.287 26.5266C59.738 26.4874 59.235 26.4351 58.777 26.3698V23.7238C59.235 23.7891 59.738 23.8414 60.287 23.8806C60.849 23.9329 61.358 23.959 61.815 23.959C62.665 23.959 63.351 23.861 63.873 23.665C64.409 23.469 64.801 23.1685 65.049 22.7634C65.298 22.3714 65.422 21.8618 65.422 21.2346V19.0982L65.99 17.8438C65.964 18.7977 65.775 19.6143 65.422 20.2938C65.082 20.9733 64.605 21.4959 63.991 21.8618C63.377 22.2146 62.645 22.391 61.796 22.391C61.064 22.391 60.398 22.2603 59.797 21.999C59.209 21.7246 58.706 21.3457 58.287 20.8622C57.869 20.3787 57.549 19.8169 57.327 19.1766C57.105 18.5233 56.994 17.8177 56.994 17.0598V16.609C56.994 15.8511 57.111 15.1455 57.347 14.4922C57.582 13.8389 57.922 13.2705 58.366 12.787C58.81 12.3036 59.339 11.9312 59.953 11.6698C60.568 11.3954 61.247 11.2582 61.992 11.2582C62.854 11.2582 63.599 11.4477 64.226 11.8266C64.867 12.2056 65.37 12.7609 65.735 13.4926C66.101 14.2243 66.297 15.1063 66.323 16.1386L65.892 16.2562V11.5718H68.381V21.0386C68.381 22.3583 68.146 23.4233 67.676 24.2334C67.205 25.0435 66.487 25.6381 65.52 26.017C64.566 26.3959 63.357 26.5854 61.894 26.5854ZM62.776 19.745C63.259 19.745 63.697 19.6405 64.089 19.4314C64.481 19.2093 64.788 18.8957 65.01 18.4906C65.245 18.0855 65.363 17.5955 65.363 17.0206V16.4522C65.363 15.8903 65.239 15.4199 64.991 15.041C64.755 14.649 64.442 14.355 64.05 14.159C63.658 13.9499 63.24 13.8454 62.795 13.8454C62.273 13.8454 61.809 13.9695 61.404 14.2178C60.999 14.4661 60.685 14.8123 60.463 15.2566C60.241 15.7009 60.13 16.2235 60.13 16.8246C60.13 17.4387 60.241 17.9679 60.463 18.4122C60.698 18.8434 61.012 19.1766 61.404 19.4118C61.809 19.6339 62.266 19.745 62.776 19.745ZM76.33 22.685C75.389 22.685 74.553 22.5413 73.821 22.2538C73.09 21.9533 72.469 21.5482 71.959 21.0386C71.463 20.529 71.084 19.9475 70.823 19.2942C70.561 18.6278 70.431 17.9287 70.431 17.197V16.7462C70.431 16.0014 70.561 15.2958 70.823 14.6294C71.097 13.9499 71.489 13.3554 71.999 12.8458C72.521 12.3362 73.148 11.9377 73.88 11.6502C74.612 11.3497 75.429 11.1994 76.33 11.1994C77.258 11.1994 78.081 11.3497 78.8 11.6502C79.531 11.9377 80.152 12.3362 80.662 12.8458C81.171 13.3554 81.563 13.9499 81.838 14.6294C82.112 15.2958 82.249 16.0014 82.249 16.7462V17.197C82.249 17.9287 82.119 18.6278 81.857 19.2942C81.596 19.9475 81.211 20.529 80.701 21.0386C80.204 21.5482 79.59 21.9533 78.859 22.2538C78.127 22.5413 77.284 22.685 76.33 22.685ZM76.33 20.039C76.944 20.039 77.454 19.9083 77.859 19.647C78.264 19.3857 78.571 19.0198 78.78 18.5494C79.002 18.079 79.113 17.5563 79.113 16.9814C79.113 16.3673 79.002 15.8315 78.78 15.3742C78.558 14.9038 78.238 14.5314 77.82 14.257C77.415 13.9826 76.918 13.8454 76.33 13.8454C75.755 13.8454 75.259 13.9826 74.841 14.257C74.422 14.5314 74.102 14.9038 73.88 15.3742C73.671 15.8315 73.567 16.3673 73.567 16.9814C73.567 17.5563 73.671 18.079 73.88 18.5494C74.089 19.0198 74.403 19.3857 74.821 19.647C75.239 19.9083 75.742 20.039 76.33 20.039Z" fill="white"/>
</svg>
